<svg width="52" height="55" viewBox="0 0 52 55" fill="none" xmlns="http://www.w3.org/2000/svg">
<g filter="url(#filter0_d_242_191)">
<path d="M26 12.5C24.4548 12.5 22.9444 12.9582 21.6596 13.8166C20.3749 14.6751 19.3735 15.8952 18.7822 17.3228C18.1909 18.7503 18.0362 20.3212 18.3376 21.8366C18.6391 23.3521 19.3831 24.7442 20.4757 25.8368C21.5683 26.9294 22.9604 27.6734 24.4759 27.9749C25.9913 28.2763 27.5622 28.1216 28.9897 27.5303C30.4173 26.939 31.6374 25.9377 32.4959 24.6529C33.3543 23.3681 33.8125 21.8577 33.8125 20.3125C33.8125 18.2405 32.9894 16.2534 31.5243 14.7882C30.0591 13.3231 28.072 12.5 26 12.5ZM26 25C25.0729 25 24.1666 24.7251 23.3958 24.21C22.6249 23.6949 22.0241 22.9629 21.6693 22.1063C21.3145 21.2498 21.2217 20.3073 21.4026 19.398C21.5834 18.4887 22.0299 17.6535 22.6854 16.9979C23.341 16.3424 24.1762 15.8959 25.0855 15.7151C25.9948 15.5342 26.9373 15.627 27.7938 15.9818C28.6504 16.3366 29.3825 16.9374 29.8975 17.7083C30.4126 18.4791 30.6875 19.3854 30.6875 20.3125C30.6863 21.5553 30.192 22.7469 29.3132 23.6257C28.4344 24.5045 27.2428 24.9988 26 25Z" fill="#747474"/>
<path d="M26 3.125C21.6735 3.125 17.4442 4.40795 13.8469 6.8116C10.2496 9.21526 7.44581 12.6317 5.79014 16.6288C4.13448 20.6259 3.70128 25.0243 4.54533 29.2676C5.38938 33.5109 7.47277 37.4087 10.532 40.468C13.5913 43.5272 17.4891 45.6106 21.7324 46.4547C25.9757 47.2987 30.3741 46.8655 34.3712 45.2099C38.3683 43.5542 41.7848 40.7504 44.1884 37.1531C46.5921 33.5558 47.875 29.3265 47.875 25C47.8684 19.2004 45.5616 13.6403 41.4607 9.53935C37.3597 5.43842 31.7996 3.13162 26 3.125ZM16.625 41.2141V39.0625C16.6263 37.8197 17.1205 36.6281 17.9993 35.7493C18.8781 34.8705 20.0697 34.3762 21.3125 34.375H30.6875C31.9303 34.3762 33.1219 34.8705 34.0007 35.7493C34.8795 36.6281 35.3738 37.8197 35.375 39.0625V41.2141C32.53 42.8753 29.2946 43.7508 26 43.7508C22.7055 43.7508 19.4701 42.8753 16.625 41.2141ZM38.4875 38.9469C38.4564 36.8974 37.6213 34.9422 36.1624 33.5025C34.7034 32.0628 32.7372 31.2539 30.6875 31.25H21.3125C19.2628 31.2539 17.2966 32.0628 15.8376 33.5025C14.3787 34.9422 13.5436 36.8974 13.5125 38.9469C10.679 36.4168 8.68084 33.0857 7.78256 29.3948C6.88429 25.7038 7.12829 21.8271 8.48226 18.2779C9.83622 14.7287 12.2363 11.6745 15.3647 9.51964C18.493 7.36479 22.2021 6.21098 26.0008 6.21098C29.7995 6.21098 33.5086 7.36479 36.6369 9.51964C39.7653 11.6745 42.1654 14.7287 43.5193 18.2779C44.8733 21.8271 45.1173 25.7038 44.219 29.3948C43.3207 33.0857 41.3226 36.4168 38.4891 38.9469H38.4875Z" fill="#747474"/>
</g>
<defs>
<filter id="filter0_d_242_191" x="-3" y="0" width="58" height="58" filterUnits="userSpaceOnUse" color-interpolation-filters="sRGB">
<feFlood flood-opacity="0" result="BackgroundImageFix"/>
<feColorMatrix in="SourceAlpha" type="matrix" values="0 0 0 0 0 0 0 0 0 0 0 0 0 0 0 0 0 0 127 0" result="hardAlpha"/>
<feOffset dy="4"/>
<feGaussianBlur stdDeviation="2"/>
<feComposite in2="hardAlpha" operator="out"/>
<feColorMatrix type="matrix" values="0 0 0 0 0 0 0 0 0 0 0 0 0 0 0 0 0 0 0.25 0"/>
<feBlend mode="normal" in2="BackgroundImageFix" result="effect1_dropShadow_242_191"/>
<feBlend mode="normal" in="SourceGraphic" in2="effect1_dropShadow_242_191" result="shape"/>
</filter>
</defs>
</svg>
