<svg width="30" height="30" viewBox="0 0 30 30" fill="none" xmlns="http://www.w3.org/2000/svg">
<path d="M10.3711 19.6582H12.0967C12.2344 19.6582 12.3662 19.5967 12.457 19.4912L15 16.459L17.543 19.4912C17.6308 19.5967 17.7627 19.6582 17.9033 19.6582H19.6289C19.8281 19.6582 19.9365 19.4268 19.8076 19.2744L16.2246 15L19.8105 10.7256C19.9394 10.5732 19.831 10.3418 19.6318 10.3418H17.9062C17.7685 10.3418 17.6367 10.4033 17.5459 10.5088L15 13.541L12.457 10.5088C12.3691 10.4033 12.2373 10.3418 12.0967 10.3418H10.3711C10.1719 10.3418 10.0635 10.5732 10.1924 10.7256L13.7754 15L10.1924 19.2744C10.1635 19.3084 10.145 19.3499 10.139 19.3941C10.133 19.4382 10.1398 19.4832 10.1587 19.5236C10.1775 19.564 10.2075 19.5982 10.2451 19.622C10.2828 19.6459 10.3265 19.6584 10.3711 19.6582V19.6582Z" fill="#747474"/>
<path d="M25.7812 3.28125H4.21875C3.7002 3.28125 3.28125 3.7002 3.28125 4.21875V25.7812C3.28125 26.2998 3.7002 26.7188 4.21875 26.7188H25.7812C26.2998 26.7188 26.7188 26.2998 26.7188 25.7812V4.21875C26.7188 3.7002 26.2998 3.28125 25.7812 3.28125ZM24.6094 24.6094H5.39062V5.39062H24.6094V24.6094Z" fill="#747474"/>
</svg>
