<svg width="50" height="50" viewBox="0 0 50 50" fill="none" xmlns="http://www.w3.org/2000/svg">
<path d="M25 4.16663C13.5125 4.16663 4.16663 11.6437 4.16663 20.8333C4.16663 26.8916 8.12079 32.3229 14.5833 35.2791V45.8333L25.7083 37.4895C36.8687 37.1916 45.8333 29.8333 45.8333 20.8333C45.8333 11.6437 36.4875 4.16663 25 4.16663ZM25 33.3333H24.3062L18.75 37.5V32.4645L17.4145 31.95C11.8125 29.7937 8.33329 25.5333 8.33329 20.8333C8.33329 13.9395 15.8104 8.33329 25 8.33329C34.1895 8.33329 41.6666 13.9395 41.6666 20.8333C41.6666 27.727 34.1895 33.3333 25 33.3333Z" fill="#747474"/>
<path d="M29.7771 13.1105L25 17.8876L20.2229 13.1105L17.2771 16.0563L22.0542 20.8334L17.2771 25.6105L20.2229 28.5563L25 23.7792L29.7771 28.5563L32.7229 25.6105L27.9458 20.8334L32.7229 16.0563L29.7771 13.1105Z" fill="#747474"/>
</svg>
