<svg width="50" height="50" viewBox="0 0 50 50" fill="none" xmlns="http://www.w3.org/2000/svg">
<path d="M25 4.16663C13.5125 4.16663 4.16669 11.6437 4.16669 20.8333C4.16669 26.8916 8.12085 32.3229 14.5834 35.2791V45.8333L25.7084 37.4895C36.8688 37.1916 45.8334 29.8333 45.8334 20.8333C45.8334 11.6437 36.4875 4.16663 25 4.16663ZM25 33.3333H24.3063L18.75 37.5V32.4645L17.4146 31.95C11.8125 29.7937 8.33335 25.5333 8.33335 20.8333C8.33335 13.9395 15.8104 8.33329 25 8.33329C34.1896 8.33329 41.6667 13.9395 41.6667 20.8333C41.6667 27.727 34.1896 33.3333 25 33.3333Z" fill="#747474"/>
<path d="M17.7146 24.1438V27.0563H20.6271L28.6896 19.0063L25.775 16.0938L17.7146 24.1438ZM30.0625 17.6333L27.15 14.7208L29.3729 12.4979L32.2854 15.4104L30.0625 17.6333Z" fill="#747474"/>
</svg>
