<svg width="50" height="50" viewBox="0 0 50 50" fill="none" xmlns="http://www.w3.org/2000/svg">
<path fill-rule="evenodd" clip-rule="evenodd" d="M34.4375 11.7812V16.6562L37.5625 13.5625V7.8125L36 6.25H7.875L6.3125 7.8125V9.33125L6.25 9.375V41.5312L7.375 42.9688L23 48.3438L25 46.875V43.75H36L37.5625 42.1875V36.5312L34.4375 33.4062V40.625H25V14.7188L23.9688 13.2812L12.6125 9.375H34.4375V11.7812ZM21.875 44.625L9.375 40.4375V11.625L21.875 15.8125V44.625V44.625ZM42.25 26.5H26.7188V23.375H42.125L37.125 18.375L39.3438 16.1875L47.0625 23.875V26.0938L39.2812 33.8437L37.0937 31.6563L42.25 26.5V26.5Z" fill="#747474"/>
</svg>
